<?xml version="1.0" encoding="utf-8"?><svg viewBox="0 0 311 311" xmlns="http://www.w3.org/2000/svg" xmlns:xlink="http://www.w3.org/1999/xlink"><style>:root>svg{display:none}:root>svg:target{display:block}</style><svg viewBox="0 0 12 6.969" id="arrow" xmlns="http://www.w3.org/2000/svg"><path data-name="Rounded Rectangle 702 copy 24" class="acls-1" d="M11.691 6.676a1 1 0 01-1.414 0L6 2.385 1.694 6.676a1 1 0 01-1.414 0 .991.991 0 010-1.406l5.016-5a1.006 1.006 0 011.415 0l4.984 5a.989.989 0 01-.004 1.406z"/></svg><svg viewBox="0 0 311 311.077" id="close" xmlns="http://www.w3.org/2000/svg"><path d="M16.035 311.078c-4.097 0-8.195-1.558-11.308-4.695-6.25-6.25-6.25-16.383 0-22.633L283.789 4.687c6.25-6.25 16.383-6.25 22.633 0s6.25 16.383 0 22.637L27.363 306.383a16.045 16.045 0 01-11.328 4.695zm0 0"/><path d="M295.117 311.078a15.879 15.879 0 01-11.308-4.695L4.727 27.324c-6.25-6.254-6.25-16.386 0-22.636s16.382-6.25 22.636 0L306.422 283.75c6.25 6.25 6.25 16.383 0 22.633-3.137 3.117-7.23 4.695-11.305 4.695zm0 0"/></svg></svg>